<svg viewBox="0 0 1155 700" fill="none" xmlns="http://www.w3.org/2000/svg"><path d="M425.787 319.405C410.287 306.488 403.182 284.959 401.568 275.81C430.631 232.215 477.455 253.205 472.611 296.8C470.821 312.907 466.607 322.401 461.027 327.157C461.121 330.493 463.569 338.456 472.611 343.622C483.913 350.081 504.903 350.081 519.435 356.539C533.967 362.998 567.874 503.47 569.488 513.158C571.103 522.845 563.03 535.762 551.727 524.46C540.425 513.158 512.977 411.436 498.445 421.124C483.913 430.812 391.88 401.749 393.495 411.436C395.109 421.124 364.431 474.407 370.89 474.407C377.348 474.407 496.83 485.709 512.977 485.709C529.123 485.709 542.04 513.158 542.04 524.46C542.04 535.762 519.435 519.616 512.977 513.158C506.518 506.699 364.431 514.772 341.827 503.47C319.222 492.168 359.587 390.446 364.431 375.915C369.275 361.383 372.504 356.539 406.411 356.539C433.537 356.539 438.166 336.951 437.089 327.157C433.301 325.157 429.485 322.487 425.787 319.405Z" fill="#8A6564"></path><path fill-rule="evenodd" clip-rule="evenodd" d="M422.162 279.333C410.865 288.135 400.194 285.62 396.271 283.263C378.697 283.263 372.734 257.592 371.949 244.756C374.303 249.733 381.521 257.487 391.564 248.685C404.117 237.683 435.5 239.255 455.115 244.756C474.729 250.257 473.945 287.193 473.945 283.263C473.945 281.423 472.053 280.444 469.799 279.279C467.239 277.955 464.212 276.39 462.961 273.047C460.607 266.76 436.285 268.331 422.162 279.333ZM511.362 348.468L487.545 348.468C487.007 366.229 473 378 453 378C423.937 378 419 369 412.045 355.468C399.953 355.468 381 357 374.192 360.312C373.804 360.598 373.35 360.9 372.836 361.242L372.836 361.242C368.527 364.109 360.034 369.76 351.045 392.232C342.577 413.402 339.881 424.786 338.303 431.452L338.303 431.452L338.303 431.453C338.006 432.706 337.749 433.793 337.5 434.746C339.027 435.522 340.644 436.354 342.331 437.221C360.012 446.312 385.365 459.349 395.429 453.609C396.818 460.718 397.301 468.289 397.521 476.43C383.589 475.23 373.631 474.408 371.89 474.408L342.827 503.471C350.621 507.369 372.624 508.962 398.373 509.642C398.691 515.1 399.18 520.779 399.953 526.701C400.16 528.288 400.414 529.882 400.666 531.471C401.783 538.49 402.888 545.439 399.953 551.5C444.118 557.394 548.167 560.591 572 540C553.731 533.149 532.95 474.423 520.409 434.746L556.967 430.817C556.742 427.662 555.147 421.68 553.202 414.386L553.202 414.386C550.625 404.72 547.433 392.75 546 382C543.485 363.137 531 348.468 511.362 348.468Z" fill="#ffffff"></path><path opacity="0.2" d="M487.545 348.469L511.362 348.469C531 348.469 543.485 363.138 546 382.001C548.515 400.864 556.443 423.482 556.967 430.818L520.409 434.747C532.95 474.424 553.731 533.15 572 540.001C548.167 560.592 444.118 557.395 399.953 551.501C403.552 544.067 401.075 535.297 399.953 526.702C396.09 497.1 399.324 473.543 395.429 453.61C384.404 459.897 355.034 443.655 337.5 434.747C339.072 428.722 340.985 417.383 351.045 392.233C361.105 367.083 370.545 363.002 374.192 360.313C381 357.001 399.953 355.469 412.045 355.469C419 369.001 423.937 378.001 453 378.001C473 378.001 487.007 366.23 487.545 348.469Z" fill="#7D8CA6"></path><path d="M422.162 279.333C410.864 288.135 400.194 285.62 396.271 283.263C378.697 283.263 372.734 257.592 371.949 244.756C374.303 249.733 381.521 257.487 391.564 248.685C404.117 237.683 435.5 239.255 455.115 244.756C474.729 250.257 473.945 287.193 473.945 283.263C473.945 279.333 465.315 279.333 462.961 273.047C460.607 266.76 436.285 268.331 422.162 279.333Z" fill="#4B5361"></path><path d="M513.976 513.157C507.518 506.699 365.431 514.772 342.826 503.469L371.889 474.406C378.348 474.406 497.83 485.709 513.976 485.709C530.122 485.709 543.039 513.157 543.039 524.46C543.039 535.762 520.435 519.616 513.976 513.157Z" fill="#8A6564"></path><rect x="455" y="252.5" width="352" height="214" fill="#DAE4FA" fill-opacity="0.7"></rect><rect x="609" y="466.5" width="45" height="22" fill="#B7CFFD"></rect><path fill-rule="evenodd" clip-rule="evenodd" d="M740.5 148.5C740.5 146.567 742.067 145 744 145H763C764.933 145 766.5 146.567 766.5 148.5C766.5 150.433 764.933 152 763 152H744C742.067 152 740.5 150.433 740.5 148.5ZM767.014 182.935C768.359 181.547 768.324 179.331 766.935 177.986C765.547 176.641 763.331 176.676 761.986 178.065L746.486 194.065L743.964 196.668L746.654 199.097L762.154 213.097C763.588 214.393 765.802 214.28 767.097 212.846C768.393 211.412 768.28 209.198 766.846 207.903L754.036 196.332L767.014 182.935ZM773.014 364.935C774.359 363.547 774.324 361.331 772.935 359.986C771.547 358.641 769.331 358.676 767.986 360.065L752.486 376.065L749.964 378.668L752.654 381.097L768.154 395.097C769.589 396.393 771.802 396.28 773.097 394.846C774.393 393.412 774.28 391.198 772.846 389.903L760.036 378.332L773.014 364.935ZM813.565 177.986C812.176 179.331 812.141 181.547 813.486 182.935L826.464 196.332L813.654 207.903C812.22 209.198 812.107 211.412 813.403 212.846C814.698 214.28 816.911 214.393 818.346 213.097L833.846 199.097L836.536 196.668L834.014 194.065L818.514 178.065C817.169 176.676 814.953 176.641 813.565 177.986ZM846.486 366.935C845.141 365.547 845.176 363.331 846.565 361.986C847.953 360.641 850.169 360.676 851.514 362.065L867.014 378.065L869.536 380.668L866.846 383.097L851.346 397.097C849.911 398.393 847.698 398.28 846.403 396.846C845.107 395.412 845.22 393.198 846.654 391.903L859.464 380.332L846.486 366.935ZM746 238C744.067 238 742.5 239.567 742.5 241.5C742.5 243.433 744.067 245 746 245H763C764.933 245 766.5 243.433 766.5 241.5C766.5 239.567 764.933 238 763 238H746ZM742.5 425.5C742.5 423.567 744.067 422 746 422H763C764.933 422 766.5 423.567 766.5 425.5C766.5 427.433 764.933 429 763 429H746C744.067 429 742.5 427.433 742.5 425.5ZM746 329C744.067 329 742.5 330.567 742.5 332.5C742.5 334.433 744.067 336 746 336H787C788.933 336 790.5 334.433 790.5 332.5C790.5 330.567 788.933 329 787 329H746ZM774.5 425.5C774.5 423.567 776.067 422 778 422H824C825.933 422 827.5 423.567 827.5 425.5C827.5 427.433 825.933 429 824 429H778C776.067 429 774.5 427.433 774.5 425.5ZM800.5 362.5C800.5 360.567 798.933 359 797 359C795.067 359 793.5 360.567 793.5 362.5V395.5C793.5 397.433 795.067 399 797 399C798.933 399 800.5 397.433 800.5 395.5V362.5ZM772 272C773.933 272 775.5 273.567 775.5 275.5V298.5C775.5 300.433 773.933 302 772 302C770.067 302 768.5 300.433 768.5 298.5V275.5C768.5 273.567 770.067 272 772 272ZM814.5 277.5C814.5 275.567 812.933 274 811 274C809.067 274 807.5 275.567 807.5 277.5V297.5C807.5 299.433 809.067 301 811 301C812.933 301 814.5 299.433 814.5 297.5V277.5ZM830 278C831.933 278 833.5 279.567 833.5 281.5V292.5C833.5 294.433 831.933 296 830 296C828.067 296 826.5 294.433 826.5 292.5V281.5C826.5 279.567 828.067 278 830 278ZM895.5 281.5C895.5 279.567 893.933 278 892 278C890.067 278 888.5 279.567 888.5 281.5V292.5C888.5 294.433 890.067 296 892 296C893.933 296 895.5 294.433 895.5 292.5V281.5ZM751 278C752.933 278 754.5 279.567 754.5 281.5V292.5C754.5 294.433 752.933 296 751 296C749.067 296 747.5 294.433 747.5 292.5V281.5C747.5 279.567 749.067 278 751 278ZM874.5 277.5C874.5 275.567 872.933 274 871 274C869.067 274 867.5 275.567 867.5 277.5V297.5C867.5 299.433 869.067 301 871 301C872.933 301 874.5 299.433 874.5 297.5V277.5ZM792 267C793.933 267 795.5 268.567 795.5 270.5V303.5C795.5 305.433 793.933 307 792 307C790.067 307 788.5 305.433 788.5 303.5V270.5C788.5 268.567 790.067 267 792 267ZM804.237 184.558C805.374 182.995 805.028 180.806 803.465 179.669C801.901 178.532 799.713 178.878 798.576 180.442L779.169 207.132C778.032 208.696 778.378 210.885 779.942 212.021C781.505 213.158 783.694 212.812 784.831 211.249L804.237 184.558ZM850 267C851.933 267 853.5 268.567 853.5 270.5V303.5C853.5 305.433 851.933 307 850 307C848.067 307 846.5 305.433 846.5 303.5V270.5C846.5 268.567 848.067 267 850 267ZM822.5 362.5C822.5 360.567 820.933 359 819 359C817.067 359 815.5 360.567 815.5 362.5V395.5C815.5 397.433 817.067 399 819 399C820.933 399 822.5 397.433 822.5 395.5V362.5ZM795.5 332.5C795.5 330.567 797.067 329 799 329H824C825.933 329 827.5 330.567 827.5 332.5C827.5 334.433 825.933 336 824 336H799C797.067 336 795.5 334.433 795.5 332.5ZM839 329C837.067 329 835.5 330.567 835.5 332.5C835.5 334.433 837.067 336 839 336H867C868.933 336 870.5 334.433 870.5 332.5C870.5 330.567 868.933 329 867 329H839ZM778.5 241.5C778.5 239.567 780.067 238 782 238H819C820.933 238 822.5 239.567 822.5 241.5C822.5 243.433 820.933 245 819 245H782C780.067 245 778.5 243.433 778.5 241.5ZM835 238C833.067 238 831.5 239.567 831.5 241.5C831.5 243.433 833.067 245 835 245H875C876.933 245 878.5 243.433 878.5 241.5C878.5 239.567 876.933 238 875 238H835ZM774.5 148.5C774.5 146.567 776.067 145 778 145H809C810.933 145 812.5 146.567 812.5 148.5C812.5 150.433 810.933 152 809 152H778C776.067 152 774.5 150.433 774.5 148.5ZM253 488.5V513.616H298.134V542.5H334.493H349.537H372.104H384.642H725.657H740.701H760.761H775.806H810.91V513.616H841V488.5H253Z" fill="#22a6b3"></path><path opacity="0.5" d="M253 513.616V488.5H841V513.616H810.91V542.5H775.806H760.761H740.701H725.657H384.642H372.104H349.537H334.493H298.134V513.616H253Z" fill="url(#paint0_linear)"></path><g opacity="0.2" filter="url(#filter0_f)"><path d="M773.5 190.5L758 206.5L773.5 220.5" stroke="black" stroke-opacity="0.5" stroke-width="7" stroke-linecap="round"></path><path d="M779.5 372.5L764 388.5L779.5 402.5" stroke="black" stroke-opacity="0.5" stroke-width="7" stroke-linecap="round"></path><path d="M825 190.5L840.5 206.5L825 220.5" stroke="black" stroke-opacity="0.5" stroke-width="7" stroke-linecap="round"></path><path d="M858 374.5L873.5 390.5L858 404.5" stroke="black" stroke-opacity="0.5" stroke-width="7" stroke-linecap="round"></path><path d="M753 158.5H772" stroke="black" stroke-opacity="0.5" stroke-width="7" stroke-linecap="round"></path><path d="M755 251.5H772" stroke="black" stroke-opacity="0.5" stroke-width="7" stroke-linecap="round"></path><path d="M755 435.5H772" stroke="black" stroke-opacity="0.5" stroke-width="7" stroke-linecap="round"></path><path d="M755 342.5H796" stroke="black" stroke-opacity="0.5" stroke-width="7" stroke-linecap="round"></path><path d="M787 435.5H833" stroke="black" stroke-opacity="0.5" stroke-width="7" stroke-linecap="round"></path><path d="M806 372.5L806 405.5" stroke="black" stroke-opacity="0.5" stroke-width="7" stroke-linecap="round"></path><path d="M781 285.5L781 308.5" stroke="black" stroke-opacity="0.5" stroke-width="7" stroke-linecap="round"></path><path d="M820 287.5L820 307.5" stroke="black" stroke-opacity="0.5" stroke-width="7" stroke-linecap="round"></path><path d="M839 291.5L839 302.5" stroke="black" stroke-opacity="0.5" stroke-width="7" stroke-linecap="round"></path><path d="M901 291.5L901 302.5" stroke="black" stroke-opacity="0.5" stroke-width="7" stroke-linecap="round"></path><path d="M760 291.5L760 302.5" stroke="black" stroke-opacity="0.5" stroke-width="7" stroke-linecap="round"></path><path d="M880 287.5L880 307.5" stroke="black" stroke-opacity="0.5" stroke-width="7" stroke-linecap="round"></path><path d="M801 280.5L801 313.5" stroke="black" stroke-opacity="0.5" stroke-width="7" stroke-linecap="round"></path><path d="M810.406 192.5L791 219.191" stroke="black" stroke-opacity="0.5" stroke-width="7" stroke-linecap="round"></path><path d="M859 280.5L859 313.5" stroke="black" stroke-opacity="0.5" stroke-width="7" stroke-linecap="round"></path><path d="M828 372.5L828 405.5" stroke="black" stroke-opacity="0.5" stroke-width="7" stroke-linecap="round"></path><path d="M808 342.5H833" stroke="black" stroke-opacity="0.5" stroke-width="7" stroke-linecap="round"></path><path d="M848 342.5H876" stroke="black" stroke-opacity="0.5" stroke-width="7" stroke-linecap="round"></path><path d="M791 251.5H828" stroke="black" stroke-opacity="0.5" stroke-width="7" stroke-linecap="round"></path><path d="M844 251.5H884" stroke="black" stroke-opacity="0.5" stroke-width="7" stroke-linecap="round"></path><path d="M787 158.5H818" stroke="black" stroke-opacity="0.5" stroke-width="7" stroke-linecap="round"></path></g><g opacity="0.2"><path d="M764.5 180.5L749 196.5L764.5 210.5" stroke="#EE7E79" stroke-width="7" stroke-linecap="round"></path><path d="M770.5 362.5L755 378.5L770.5 392.5" stroke="#EE7E79" stroke-width="7" stroke-linecap="round"></path><path d="M816 180.5L831.5 196.5L816 210.5" stroke="#EE7E79" stroke-width="7" stroke-linecap="round"></path><path d="M849 364.5L864.5 380.5L849 394.5" stroke="#EE7E79" stroke-width="7" stroke-linecap="round"></path><path d="M744 148.5H763" stroke="#EE7E79" stroke-width="7" stroke-linecap="round"></path><path d="M746 241.5H763" stroke="#EE7E79" stroke-width="7" stroke-linecap="round"></path><path d="M746 425.5H763" stroke="#EE7E79" stroke-width="7" stroke-linecap="round"></path><path d="M746 332.5H787" stroke="#EE7E79" stroke-width="7" stroke-linecap="round"></path><path d="M778 425.5H824" stroke="#EE7E79" stroke-width="7" stroke-linecap="round"></path><path d="M797 362.5L797 395.5" stroke="#EE7E79" stroke-width="7" stroke-linecap="round"></path><path d="M772 275.5L772 298.5" stroke="#EE7E79" stroke-width="7" stroke-linecap="round"></path><path d="M811 277.5L811 297.5" stroke="#EE7E79" stroke-width="7" stroke-linecap="round"></path><path d="M830 281.5L830 292.5" stroke="#EE7E79" stroke-width="7" stroke-linecap="round"></path><path d="M892 281.5L892 292.5" stroke="#EE7E79" stroke-width="7" stroke-linecap="round"></path><path d="M751 281.5L751 292.5" stroke="#EE7E79" stroke-width="7" stroke-linecap="round"></path><path d="M871 277.5L871 297.5" stroke="#EE7E79" stroke-width="7" stroke-linecap="round"></path><path d="M792 270.5L792 303.5" stroke="#EE7E79" stroke-width="7" stroke-linecap="round"></path><path d="M801.406 182.5L782 209.191" stroke="#EE7E79" stroke-width="7" stroke-linecap="round"></path><path d="M850 270.5L850 303.5" stroke="#EE7E79" stroke-width="7" stroke-linecap="round"></path><path d="M819 362.5L819 395.5" stroke="#EE7E79" stroke-width="7" stroke-linecap="round"></path><path d="M799 332.5H824" stroke="#EE7E79" stroke-width="7" stroke-linecap="round"></path><path d="M839 332.5H867" stroke="#EE7E79" stroke-width="7" stroke-linecap="round"></path><path d="M782 241.5H819" stroke="#EE7E79" stroke-width="7" stroke-linecap="round"></path><path d="M835 241.5H875" stroke="#EE7E79" stroke-width="7" stroke-linecap="round"></path><path d="M778 148.5H809" stroke="#EE7E79" stroke-width="7" stroke-linecap="round"></path></g><g opacity="0.5" filter="url(#filter1_f)"><path d="M709.984 294.617C711.57 294.109 712.391 292.816 712.445 290.738V288.16C712.445 286.355 713.152 285.125 714.566 284.469C713.152 283.828 712.445 282.598 712.445 280.777V278.398C712.445 276.195 711.629 274.832 709.996 274.309L710.441 272.961C711.824 273.352 712.863 273.988 713.559 274.871C714.254 275.746 714.605 276.906 714.613 278.352V280.812C714.613 282.68 715.441 283.613 717.098 283.613V285.312C715.441 285.312 714.613 286.262 714.613 288.16V290.527C714.613 291.996 714.258 293.172 713.547 294.055C712.844 294.938 711.809 295.574 710.441 295.965L709.984 294.617Z" fill="#EE7E79"></path><path d="M611.682 295.965C610.299 295.574 609.256 294.93 608.553 294.031C607.857 293.141 607.51 291.961 607.51 290.492V288.16C607.51 286.262 606.682 285.312 605.025 285.312V283.613C606.682 283.613 607.51 282.668 607.51 280.777V278.34C607.525 276.91 607.873 275.758 608.553 274.883C609.24 274 610.283 273.359 611.682 272.961L612.127 274.309C610.494 274.832 609.678 276.195 609.678 278.398V280.766C609.678 282.539 609.025 283.773 607.721 284.469C609.025 285.172 609.678 286.418 609.678 288.207V290.621C609.701 292.77 610.518 294.102 612.127 294.617L611.682 295.965Z" fill="#EE7E79"></path><path d="M612.975 284.902H707.587" stroke="#6B81AC" stroke-width="4" stroke-miterlimit="16" stroke-dasharray="3 3"></path><path d="M709.984 400.105C711.57 399.598 712.391 398.305 712.445 396.227V393.648C712.445 391.844 713.152 390.613 714.566 389.957C713.152 389.316 712.445 388.086 712.445 386.266V383.887C712.445 381.684 711.629 380.32 709.996 379.797L710.441 378.449C711.824 378.84 712.863 379.477 713.559 380.359C714.254 381.234 714.605 382.395 714.613 383.84V386.301C714.613 388.168 715.441 389.102 717.098 389.102V390.801C715.441 390.801 714.613 391.75 714.613 393.648V396.016C714.613 397.484 714.258 398.66 713.547 399.543C712.844 400.426 711.809 401.062 710.441 401.453L709.984 400.105Z" fill="#EE7E79"></path><path d="M611.682 401.453C610.299 401.062 609.256 400.418 608.553 399.52C607.857 398.629 607.51 397.449 607.51 395.98V393.648C607.51 391.75 606.682 390.801 605.025 390.801V389.102C606.682 389.102 607.51 388.156 607.51 386.266V383.828C607.525 382.398 607.873 381.246 608.553 380.371C609.24 379.488 610.283 378.848 611.682 378.449L612.127 379.797C610.494 380.32 609.678 381.684 609.678 383.887V386.254C609.678 388.027 609.025 389.262 607.721 389.957C609.025 390.66 609.678 391.906 609.678 393.695V396.109C609.701 398.258 610.518 399.59 612.127 400.105L611.682 401.453Z" fill="#EE7E79"></path><path d="M612.975 390.387H707.587" stroke="#6B81AC" stroke-width="4" stroke-miterlimit="16" stroke-dasharray="3 3"></path><path d="M709.984 435.992C711.57 435.484 712.391 434.191 712.445 432.113V429.535C712.445 427.73 713.152 426.5 714.566 425.844C713.152 425.203 712.445 423.973 712.445 422.152V419.773C712.445 417.57 711.629 416.207 709.996 415.684L710.441 414.336C711.824 414.727 712.863 415.363 713.559 416.246C714.254 417.121 714.605 418.281 714.613 419.727V422.188C714.613 424.055 715.441 424.988 717.098 424.988V426.688C715.441 426.688 714.613 427.637 714.613 429.535V431.902C714.613 433.371 714.258 434.547 713.547 435.43C712.844 436.312 711.809 436.949 710.441 437.34L709.984 435.992Z" fill="#EE7E79"></path><path d="M611.682 437.34C610.299 436.949 609.256 436.305 608.553 435.406C607.857 434.516 607.51 433.336 607.51 431.867V429.535C607.51 427.637 606.682 426.688 605.025 426.688V424.988C606.682 424.988 607.51 424.043 607.51 422.152V419.715C607.525 418.285 607.873 417.133 608.553 416.258C609.24 415.375 610.283 414.734 611.682 414.336L612.127 415.684C610.494 416.207 609.678 417.57 609.678 419.773V422.141C609.678 423.914 609.025 425.148 607.721 425.844C609.025 426.547 609.678 427.793 609.678 429.582V431.996C609.701 434.145 610.518 435.477 612.127 435.992L611.682 437.34Z" fill="#EE7E79"></path><path d="M612.975 426.277H707.587" stroke="#6B81AC" stroke-width="4" stroke-miterlimit="16" stroke-dasharray="3 3"></path><line x1="612.299" y1="310.59" x2="709.349" y2="310.59" stroke="black" stroke-opacity="0.5" stroke-width="3" stroke-linecap="round"></line><line x1="500.287" y1="330.164" x2="563.625" y2="330.164" stroke="#6B81AC" stroke-width="3" stroke-linecap="round"></line><line x1="500.287" y1="341.039" x2="563.625" y2="341.039" stroke="#6B81AC" stroke-width="3" stroke-linecap="round"></line><line x1="612.299" y1="335.602" x2="694.124" y2="335.602" stroke="#EDC7C5" stroke-width="3" stroke-linecap="round"></line><line x1="612.299" y1="361.699" x2="711.524" y2="361.699" stroke="#EDC7C5" stroke-width="3" stroke-linecap="round"></line><line x1="612.299" y1="353" x2="640.836" y2="353" stroke="#EE7E79" stroke-width="3" stroke-linecap="round"></line><line x1="612.299" y1="344.301" x2="640.836" y2="344.301" stroke="#EE7E79" stroke-width="3" stroke-linecap="round"></line><line x1="612.299" y1="319.289" x2="640.836" y2="319.289" stroke="#EE7E79" stroke-width="3" stroke-linecap="round"></line><line x1="612.299" y1="326.902" x2="640.836" y2="326.902" stroke="#EE7E79" stroke-width="3" stroke-linecap="round"></line><rect x="498.787" y="278.375" width="88.0875" height="15.225" fill="#EDC7C5"></rect><rect x="498.787" y="305.562" width="88.0875" height="15.225" fill="#EDC7C5"></rect></g><path d="M700.197 292.441C701.783 291.934 702.604 290.641 702.658 288.562V285.984C702.658 284.18 703.365 282.949 704.779 282.293C703.365 281.652 702.658 280.422 702.658 278.602V276.223C702.658 274.02 701.842 272.656 700.209 272.133L700.654 270.785C702.037 271.176 703.076 271.812 703.771 272.695C704.467 273.57 704.818 274.73 704.826 276.176V278.637C704.826 280.504 705.654 281.438 707.311 281.438V283.137C705.654 283.137 704.826 284.086 704.826 285.984V288.352C704.826 289.82 704.471 290.996 703.76 291.879C703.057 292.762 702.021 293.398 700.654 293.789L700.197 292.441Z" fill="#EE7E79"></path><path d="M601.895 293.789C600.512 293.398 599.469 292.754 598.766 291.855C598.07 290.965 597.723 289.785 597.723 288.316V285.984C597.723 284.086 596.895 283.137 595.238 283.137V281.438C596.895 281.438 597.723 280.492 597.723 278.602V276.164C597.738 274.734 598.086 273.582 598.766 272.707C599.453 271.824 600.496 271.184 601.895 270.785L602.34 272.133C600.707 272.656 599.891 274.02 599.891 276.223V278.59C599.891 280.363 599.238 281.598 597.934 282.293C599.238 282.996 599.891 284.242 599.891 286.031V288.445C599.914 290.594 600.73 291.926 602.34 292.441L601.895 293.789Z" fill="#EE7E79"></path><path d="M603.188 282.727H697.8" stroke="#6B81AC" stroke-width="4" stroke-miterlimit="16" stroke-dasharray="3 3"></path><path d="M700.197 397.93C701.783 397.422 702.604 396.129 702.658 394.051V391.473C702.658 389.668 703.365 388.438 704.779 387.781C703.365 387.141 702.658 385.91 702.658 384.09V381.711C702.658 379.508 701.842 378.145 700.209 377.621L700.654 376.273C702.037 376.664 703.076 377.301 703.771 378.184C704.467 379.059 704.818 380.219 704.826 381.664V384.125C704.826 385.992 705.654 386.926 707.311 386.926V388.625C705.654 388.625 704.826 389.574 704.826 391.473V393.84C704.826 395.309 704.471 396.484 703.76 397.367C703.057 398.25 702.021 398.887 700.654 399.277L700.197 397.93Z" fill="#EE7E79"></path><path d="M601.895 399.277C600.512 398.887 599.469 398.242 598.766 397.344C598.07 396.453 597.723 395.273 597.723 393.805V391.473C597.723 389.574 596.895 388.625 595.238 388.625V386.926C596.895 386.926 597.723 385.98 597.723 384.09V381.652C597.738 380.223 598.086 379.07 598.766 378.195C599.453 377.312 600.496 376.672 601.895 376.273L602.34 377.621C600.707 378.145 599.891 379.508 599.891 381.711V384.078C599.891 385.852 599.238 387.086 597.934 387.781C599.238 388.484 599.891 389.73 599.891 391.52V393.934C599.914 396.082 600.73 397.414 602.34 397.93L601.895 399.277Z" fill="#EE7E79"></path><path d="M603.188 388.211H697.8" stroke="#6B81AC" stroke-width="4" stroke-miterlimit="16" stroke-dasharray="3 3"></path><path d="M700.197 433.816C701.783 433.309 702.604 432.016 702.658 429.938V427.359C702.658 425.555 703.365 424.324 704.779 423.668C703.365 423.027 702.658 421.797 702.658 419.977V417.598C702.658 415.395 701.842 414.031 700.209 413.508L700.654 412.16C702.037 412.551 703.076 413.188 703.771 414.07C704.467 414.945 704.818 416.105 704.826 417.551V420.012C704.826 421.879 705.654 422.812 707.311 422.812V424.512C705.654 424.512 704.826 425.461 704.826 427.359V429.727C704.826 431.195 704.471 432.371 703.76 433.254C703.057 434.137 702.021 434.773 700.654 435.164L700.197 433.816Z" fill="#EE7E79"></path><path d="M601.895 435.164C600.512 434.773 599.469 434.129 598.766 433.23C598.07 432.34 597.723 431.16 597.723 429.691V427.359C597.723 425.461 596.895 424.512 595.238 424.512V422.812C596.895 422.812 597.723 421.867 597.723 419.977V417.539C597.738 416.109 598.086 414.957 598.766 414.082C599.453 413.199 600.496 412.559 601.895 412.16L602.34 413.508C600.707 414.031 599.891 415.395 599.891 417.598V419.965C599.891 421.738 599.238 422.973 597.934 423.668C599.238 424.371 599.891 425.617 599.891 427.406V429.82C599.914 431.969 600.73 433.301 602.34 433.816L601.895 435.164Z" fill="#EE7E79"></path><path d="M603.188 424.102H697.8" stroke="#6B81AC" stroke-width="4" stroke-miterlimit="16" stroke-dasharray="3 3"></path><line x1="602.512" y1="308.414" x2="699.562" y2="308.414" stroke="#EDC7C5" stroke-width="3" stroke-linecap="round"></line><line x1="490.5" y1="327.988" x2="553.838" y2="327.988" stroke="#6B81AC" stroke-width="3" stroke-linecap="round"></line><line x1="490.5" y1="338.863" x2="553.838" y2="338.863" stroke="#6B81AC" stroke-width="3" stroke-linecap="round"></line><line x1="602.512" y1="333.426" x2="684.337" y2="333.426" stroke="#EDC7C5" stroke-width="3" stroke-linecap="round"></line><line x1="602.512" y1="359.523" x2="701.737" y2="359.523" stroke="#EDC7C5" stroke-width="3" stroke-linecap="round"></line><line x1="602.512" y1="350.824" x2="631.049" y2="350.824" stroke="#EE7E79" stroke-width="3" stroke-linecap="round"></line><line x1="602.512" y1="342.125" x2="631.049" y2="342.125" stroke="#EE7E79" stroke-width="3" stroke-linecap="round"></line><line x1="602.512" y1="317.113" x2="631.049" y2="317.113" stroke="#EE7E79" stroke-width="3" stroke-linecap="round"></line><line x1="602.512" y1="324.727" x2="631.049" y2="324.727" stroke="#EE7E79" stroke-width="3" stroke-linecap="round"></line><rect x="489" y="276.199" width="88.0875" height="15.225" fill="#EDC7C5"></rect><rect x="489" y="303.387" width="88.0875" height="15.225" fill="#EDC7C5"></rect><defs><filter id="filter0_f" x="745.5" y="151" width="163" height="292" filterUnits="userSpaceOnUse" color-interpolation-filters="sRGB"><feFlood flood-opacity="0" result="BackgroundImageFix"></feFlood><feBlend mode="normal" in="SourceGraphic" in2="BackgroundImageFix" result="shape"></feBlend><feGaussianBlur stdDeviation="2" result="effect1_foregroundBlur"></feGaussianBlur></filter><filter id="filter1_f" x="493.787" y="267.961" width="228.311" height="174.379" filterUnits="userSpaceOnUse" color-interpolation-filters="sRGB"><feFlood flood-opacity="0" result="BackgroundImageFix"></feFlood><feBlend mode="normal" in="SourceGraphic" in2="BackgroundImageFix" result="shape"></feBlend><feGaussianBlur stdDeviation="2.5" result="effect1_foregroundBlur"></feGaussianBlur></filter><linearGradient id="paint0_linear" x1="547" y1="488.5" x2="547" y2="542.5" gradientUnits="userSpaceOnUse"><stop stop-color="#7E848F"></stop><stop offset="0.447817" stop-color="#6F7682"></stop><stop offset="0.447917" stop-color="#646C79"></stop><stop offset="1" stop-color="#4A5363"></stop></linearGradient></defs></svg>