<svg viewBox="0 0 1155 700" fill="none" xmlns="http://www.w3.org/2000/svg"><path d="M344 233.802C344 221.761 353.761 212 365.802 212H790.008C802.049 212 811.81 221.761 811.81 233.802V487H344V233.802Z" fill="#444"></path><path fill-rule="evenodd" clip-rule="evenodd" d="M384.462 244.338C383.748 244.338 383.169 244.917 383.169 245.631C383.169 246.345 383.748 246.924 384.462 246.924H398.787C399.501 246.924 400.08 246.345 400.08 245.631C400.08 244.917 399.501 244.338 398.787 244.338H384.462ZM393.504 427.458H532.603C533.346 427.458 533.949 428.06 533.949 428.803V431.404C533.949 432.147 533.346 432.749 532.603 432.749H393.504C392.761 432.749 392.159 432.147 392.159 431.404V428.803C392.159 428.06 392.761 427.458 393.504 427.458ZM393.504 438.395H532.604C533.347 438.395 533.949 438.997 533.949 439.74V442.341C533.949 443.084 533.347 443.686 532.604 443.686H393.504C392.761 443.686 392.159 443.084 392.159 442.341V439.74C392.159 438.997 392.761 438.395 393.504 438.395ZM532.604 449.341H393.504C392.761 449.341 392.159 449.943 392.159 450.686V453.287C392.159 454.03 392.761 454.633 393.504 454.633H532.604C533.347 454.633 533.949 454.03 533.949 453.287V450.686C533.949 449.943 533.347 449.341 532.604 449.341ZM384.514 427.474H387.092C387.835 427.474 388.438 428.077 388.438 428.82V431.398C388.438 432.141 387.835 432.744 387.092 432.744H384.514C383.771 432.744 383.168 432.141 383.168 431.398V428.82C383.168 428.077 383.771 427.474 384.514 427.474ZM387.092 438.422H384.514C383.771 438.422 383.168 439.025 383.168 439.768V442.346C383.168 443.089 383.771 443.692 384.514 443.692H387.092C387.835 443.692 388.438 443.089 388.438 442.346V439.768C388.438 439.025 387.835 438.422 387.092 438.422ZM384.514 449.374H387.092C387.835 449.374 388.438 449.976 388.438 450.719V453.298C388.438 454.041 387.835 454.643 387.092 454.643H384.514C383.771 454.643 383.168 454.041 383.168 453.298V450.719C383.168 449.976 383.771 449.374 384.514 449.374ZM383.168 251.726C383.168 251.012 383.747 250.433 384.461 250.433H398.786C399.5 250.433 400.079 251.012 400.079 251.726C400.079 252.441 399.5 253.02 398.786 253.02H384.461C383.747 253.02 383.168 252.441 383.168 251.726ZM384.461 256.529C383.747 256.529 383.168 257.108 383.168 257.822C383.168 258.536 383.747 259.115 384.461 259.115H398.786C399.5 259.115 400.079 258.536 400.079 257.822C400.079 257.108 399.5 256.529 398.786 256.529H384.461ZM772.556 281.199C772.556 285.494 771.712 289.533 765.38 289.533H390.773C384.44 289.533 383.134 285.799 383.134 281.199C383.134 276.595 384.44 272.865 390.773 272.865H765.38C771.712 272.865 772.556 276.904 772.556 281.199ZM625.605 432.099C626.958 432.099 628.055 431.206 628.055 430.104C628.055 429.003 626.958 428.109 625.605 428.109H563.045C561.692 428.109 560.595 429.003 560.595 430.104C560.595 431.206 561.692 432.099 563.045 432.099H625.605ZM628.055 441.038C628.055 442.14 626.958 443.032 625.605 443.032H563.045C561.692 443.032 560.595 442.14 560.595 441.038C560.595 439.937 561.692 439.043 563.045 439.043H625.605C626.958 439.043 628.055 439.937 628.055 441.038ZM625.605 454C626.958 454 628.055 453.108 628.055 452.005C628.055 450.905 626.958 450.011 625.605 450.011H563.045C561.692 450.011 560.595 450.905 560.595 452.005C560.595 453.108 561.692 454 563.045 454H625.605ZM724.526 430.104C724.526 431.206 723.428 432.099 722.075 432.099H659.516C658.162 432.099 657.065 431.206 657.065 430.104C657.065 429.003 658.162 428.109 659.516 428.109H722.075C723.428 428.109 724.526 429.003 724.526 430.104ZM722.075 443.032C723.428 443.032 724.526 442.14 724.526 441.038C724.526 439.937 723.428 439.043 722.075 439.043H659.516C658.162 439.043 657.065 439.937 657.065 441.038C657.065 442.14 658.162 443.032 659.516 443.032H722.075ZM724.526 452.005C724.526 453.108 723.428 454 722.075 454H659.516C658.162 454 657.065 453.108 657.065 452.005C657.065 450.905 658.162 450.011 659.516 450.011H722.075C723.428 450.011 724.526 450.905 724.526 452.005ZM625.605 311.439C626.958 311.439 628.055 310.546 628.055 309.444C628.055 308.343 626.958 307.449 625.605 307.449H555.125C553.771 307.449 552.674 308.343 552.674 309.444C552.674 310.546 553.771 311.439 555.125 311.439H625.605ZM628.055 320.398C628.055 321.5 626.958 322.393 625.605 322.393H555.125C553.771 322.393 552.674 321.5 552.674 320.398C552.674 319.297 553.771 318.404 555.125 318.404H625.605C626.958 318.404 628.055 319.297 628.055 320.398ZM625.605 333.351C626.958 333.351 628.055 332.457 628.055 331.356C628.055 330.254 626.958 329.361 625.605 329.361H555.125C553.771 329.361 552.674 330.254 552.674 331.356C552.674 332.457 553.771 333.351 555.125 333.351H625.605ZM724.013 309.465C724.013 310.567 722.923 311.46 721.579 311.46H651.578C650.234 311.46 649.144 310.567 649.144 309.465C649.144 308.364 650.234 307.471 651.578 307.471H721.579C722.923 307.471 724.013 308.364 724.013 309.465ZM721.579 322.416C722.923 322.416 724.013 321.524 724.013 320.421C724.013 319.32 722.923 318.428 721.579 318.428H651.578C650.234 318.428 649.144 319.32 649.144 320.421C649.144 321.524 650.234 322.416 651.578 322.416H721.579ZM724.013 331.374C724.013 332.475 722.923 333.369 721.579 333.369H651.578C650.234 333.369 649.144 332.475 649.144 331.374C649.144 330.272 650.234 329.379 651.578 329.379H721.579C722.923 329.379 724.013 330.272 724.013 331.374ZM528.085 307.478H389.051C385.802 307.478 383.168 309.05 383.168 310.989V410.207C383.168 412.145 385.802 413.717 389.051 413.717H528.085C531.334 413.717 533.968 412.145 533.968 410.207V310.989C533.968 309.05 531.334 307.478 528.085 307.478ZM555.615 341.283H625.115C626.739 341.283 628.055 342.355 628.055 343.676V411.302C628.055 412.623 626.739 413.694 625.115 413.694H555.615C553.991 413.694 552.674 412.623 552.674 411.302V343.676C552.674 342.355 553.991 341.283 555.615 341.283ZM721.073 341.302H651.573C649.949 341.302 648.632 342.373 648.632 343.694V411.32C648.632 412.641 649.949 413.713 651.573 413.713H721.073C722.697 413.713 724.013 412.641 724.013 411.32V343.694C724.013 342.373 722.697 341.302 721.073 341.302ZM744.983 307.475H770.413C771.663 307.475 772.676 308.488 772.676 309.738V329.648C772.676 330.898 771.663 331.911 770.413 331.911H744.983C743.733 331.911 742.72 330.898 742.72 329.648V309.738C742.72 308.488 743.733 307.475 744.983 307.475ZM770.413 348.382H744.983C743.733 348.382 742.72 349.395 742.72 350.645V370.556C742.72 371.806 743.733 372.819 744.983 372.819H770.413C771.663 372.819 772.676 371.806 772.676 370.556V350.645C772.676 349.395 771.663 348.382 770.413 348.382ZM744.983 389.29H770.413C771.663 389.29 772.676 390.303 772.676 391.553V411.463C772.676 412.713 771.663 413.726 770.413 413.726H744.983C743.733 413.726 742.72 412.713 742.72 411.463V391.553C742.72 390.303 743.733 389.29 744.983 389.29ZM770.413 430.201H744.983C743.733 430.201 742.72 431.214 742.72 432.464V452.375C742.72 453.625 743.733 454.638 744.983 454.638H770.413C771.663 454.638 772.676 453.625 772.676 452.375V432.464C772.676 431.214 771.663 430.201 770.413 430.201ZM556.664 430.104C556.664 431.206 555.771 432.099 554.669 432.099C553.567 432.099 552.674 431.206 552.674 430.104C552.674 429.003 553.567 428.109 554.669 428.109C555.771 428.109 556.664 429.003 556.664 430.104ZM554.669 443.032C555.771 443.032 556.664 442.139 556.664 441.038C556.664 439.936 555.771 439.043 554.669 439.043C553.567 439.043 552.674 439.936 552.674 441.038C552.674 442.139 553.567 443.032 554.669 443.032ZM556.664 451.975C556.664 453.076 555.771 453.969 554.669 453.969C553.567 453.969 552.674 453.076 552.674 451.975C552.674 450.873 553.567 449.98 554.669 449.98C555.771 449.98 556.664 450.873 556.664 451.975ZM650.627 432.099C651.728 432.099 652.622 431.206 652.622 430.104C652.622 429.003 651.728 428.109 650.627 428.109C649.525 428.109 648.632 429.003 648.632 430.104C648.632 431.206 649.525 432.099 650.627 432.099ZM652.622 441.038C652.622 442.139 651.728 443.032 650.627 443.032C649.525 443.032 648.632 442.139 648.632 441.038C648.632 439.936 649.525 439.043 650.627 439.043C651.728 439.043 652.622 439.936 652.622 441.038ZM650.627 453.969C651.728 453.969 652.622 453.076 652.622 451.975C652.622 450.873 651.728 449.98 650.627 449.98C649.525 449.98 648.632 450.873 648.632 451.975C648.632 453.076 649.525 453.969 650.627 453.969Z" fill="#22a6b3"></path></svg>