<svg viewBox="0 0 279 335" xmlns="http://www.w3.org/2000/svg" xmlns:xlink= "http://www.w3.org/1999/xlink" stroke-linecap="round" stroke-linejoin="round" stroke-dashoffset="0" stroke-dasharray="292"><path id="path_1" pathLength="292" d="M 203.16 149.55 C 200.03 149.565 196.941 150.262 194.108 151.594 C 191.276 152.925 188.768 154.859 186.76 157.26 L 162.16 144.91 L 162.08 144.82 L 162.08 144.68 C 162.426 143.147 162.603 141.581 162.61 140.01 C 162.611 135.662 161.274 131.417 158.781 127.854 C 156.288 124.292 152.758 121.581 148.672 120.093 C 144.587 118.605 140.14 118.41 135.94 119.534 C 131.74 120.659 127.986 123.05 125.19 126.38 L 100.51 114 L 100.43 113.91 L 100.43 113.77 C 100.747 112.294 100.908 110.789 100.91 109.28 C 100.903 107.716 100.729 106.157 100.39 104.63 L 124.89 92 L 125 92 L 125.09 92.11 C 127.761 95.3 131.31 97.637 135.295 98.832 C 139.28 100.026 143.53 100.026 147.515 98.832 C 151.5 97.637 155.049 95.3 157.72 92.11 L 182 104.64 L 182.08 104.74 L 182.08 104.87 C 181.778 106.314 181.624 107.785 181.62 109.26 C 181.62 114.285 183.392 119.154 186.622 123.003 C 189.852 126.853 194.339 129.443 199.288 130.316 C 204.237 131.188 209.339 130.289 213.691 127.776 C 218.043 125.263 221.373 121.294 223.091 116.572 C 224.81 111.849 224.809 106.669 223.09 101.946 C 221.371 97.224 218.041 93.256 213.688 90.744 C 209.336 88.231 204.234 87.332 199.285 88.206 C 194.336 89.079 189.85 91.67 186.62 95.52 L 162.37 83 L 162.29 82.9 L 162.29 82.77 C 162.589 81.329 162.74 79.862 162.74 78.39 C 162.839 73.824 161.469 69.345 158.833 65.616 C 156.197 61.887 152.431 59.101 148.094 57.671 C 143.757 56.241 139.073 56.241 134.736 57.671 C 130.399 59.101 126.633 61.887 123.997 65.616 C 121.361 69.345 119.991 73.824 120.09 78.39 C 120.095 79.841 120.243 81.288 120.53 82.71 L 95.94 95.41 L 95.81 95.41 L 95.72 95.3 C 92.456 91.524 87.968 89.011 83.043 88.202 C 78.118 87.392 73.062 88.336 68.761 90.869 C 64.46 93.401 61.181 97.365 59.5 102.064 C 57.819 106.763 57.839 111.907 59.558 116.593 C 61.276 121.279 64.586 125.216 68.907 127.715 C 73.227 130.213 78.291 131.117 83.21 130.269 C 88.128 129.42 92.596 126.872 95.83 123.07 L 120.63 135.51 L 120.71 135.61 L 120.71 135.74 C 120.421 137.142 120.277 138.569 120.28 140 C 120.269 144.313 121.576 148.528 124.025 152.079 C 126.474 155.63 129.95 158.349 133.986 159.871 C 138.021 161.393 142.427 161.646 146.611 160.597 C 150.795 159.548 154.56 157.246 157.4 154 L 182.23 166.46 L 182.31 166.55 L 182.31 166.69 C 182.03 168.083 181.89 169.5 181.89 170.92 C 181.898 172.337 182.042 173.75 182.32 175.14 L 157.74 187.78 L 157.62 187.78 L 157.52 187.67 C 154.832 184.552 151.291 182.286 147.334 181.149 C 143.377 180.013 139.173 180.056 135.241 181.273 C 131.308 182.489 127.814 184.828 125.19 188 L 125.06 188.15 L 100.58 175.56 L 100.51 175.47 L 100.51 175.33 C 101.597 170.233 100.783 164.91 98.222 160.371 C 95.661 155.832 91.526 152.382 86.601 150.677 C 81.676 148.973 76.293 149.127 71.474 151.111 C 66.655 153.096 62.724 156.776 60.427 161.455 C 58.13 166.133 57.623 171.494 59 176.52 C 60.378 181.547 63.548 185.9 67.909 188.754 C 72.27 191.607 77.528 192.769 82.686 192.019 C 87.843 191.269 92.552 188.658 95.92 184.68 L 120.61 197.38 L 120.69 197.47 L 120.69 197.61 C 119.794 202.279 120.494 207.116 122.678 211.339 C 124.862 215.562 128.405 218.929 132.733 220.896 C 137.062 222.863 141.928 223.317 146.545 222.185 C 151.163 221.053 155.268 218.399 158.195 214.654 C 161.123 210.908 162.707 206.284 162.69 201.53 C 162.685 200 162.521 198.476 162.2 196.98 L 162.2 196.98 L 186.68 184.38 L 186.81 184.53 C 189.88 188.231 194.114 190.786 198.818 191.78 C 203.523 192.773 208.428 192.147 212.732 190.004 C 217.037 187.861 220.493 184.324 222.535 179.971 C 224.578 175.618 225.09 170.7 223.987 166.019 C 222.885 161.339 220.231 157.166 216.46 154.183 C 212.69 151.199 208.018 149.577 203.21 149.58 Z M 203.16 159.11 C 205.84 159.108 208.443 160.016 210.539 161.686 C 212.636 163.355 214.104 165.688 214.702 168.301 C 215.3 170.913 214.993 173.653 213.831 176.068 C 212.669 178.483 210.721 180.433 208.307 181.597 C 205.893 182.76 203.153 183.07 200.54 182.474 C 197.927 181.878 195.593 180.412 193.922 178.317 C 192.251 176.222 191.34 173.62 191.34 170.94 C 191.345 167.816 192.586 164.817 194.789 162.602 C 196.993 160.387 199.986 159.131 203.11 159.11 Z M 141.54 151.88 C 138.86 151.882 136.257 150.974 134.161 149.304 C 132.064 147.635 130.596 145.302 129.998 142.689 C 129.4 140.077 129.707 137.337 130.869 134.922 C 132.031 132.507 133.979 130.557 136.393 129.393 C 138.807 128.23 141.547 127.92 144.16 128.516 C 146.773 129.112 149.107 130.578 150.778 132.673 C 152.449 134.768 153.36 137.37 153.36 140.05 C 153.356 142.13 152.805 144.173 151.762 145.972 C 150.719 147.772 149.221 149.265 147.418 150.302 C 145.615 151.339 143.57 151.884 141.49 151.88 Z M 141.54 90.17 C 138.86 90.172 136.257 89.264 134.161 87.594 C 132.064 85.925 130.596 83.592 129.998 80.979 C 129.4 78.367 129.707 75.627 130.869 73.212 C 132.031 70.797 133.979 68.847 136.393 67.683 C 138.807 66.52 141.547 66.21 144.16 66.806 C 146.773 67.402 149.107 68.868 150.778 70.963 C 152.449 73.058 153.36 75.66 153.36 78.34 C 153.356 80.42 152.805 82.463 151.762 84.262 C 150.719 86.062 149.221 87.555 147.418 88.592 C 145.615 89.629 143.57 90.174 141.49 90.17 Z M 203.16 121.09 C 200.027 121.087 197.02 119.839 194.806 117.622 C 192.592 115.405 191.348 112.396 191.35 109.263 C 191.352 106.13 192.599 103.123 194.816 100.908 C 197.032 98.694 200.04 97.449 203.173 97.45 C 206.306 97.451 209.314 98.697 211.529 100.913 C 213.744 103.129 214.99 106.137 214.99 109.27 C 214.988 111.351 214.437 113.395 213.393 115.195 C 212.349 116.995 210.849 118.489 209.043 119.523 C 207.238 120.558 205.191 121.099 203.11 121.09 Z M 79.66 121.09 C 76.527 121.087 73.52 119.839 71.306 117.622 C 69.092 115.405 67.848 112.396 67.85 109.263 C 67.852 106.13 69.099 103.123 71.316 100.908 C 73.532 98.694 76.54 97.449 79.673 97.45 C 82.806 97.451 85.814 98.697 88.029 100.913 C 90.244 103.129 91.49 106.137 91.49 109.27 C 91.486 111.35 90.935 113.394 89.89 115.193 C 88.846 116.993 87.346 118.485 85.541 119.52 C 83.736 120.556 81.69 121.097 79.61 121.09 Z M 141.54 213.32 C 138.406 213.32 135.398 212.074 133.182 209.858 C 130.966 207.642 129.72 204.634 129.72 201.5 C 129.72 198.366 130.966 195.358 133.182 193.142 C 135.398 190.926 138.406 189.68 141.54 189.68 C 144.674 189.68 147.682 190.926 149.898 193.142 C 152.114 195.358 153.36 198.366 153.36 201.5 C 153.356 203.579 152.805 205.622 151.762 207.42 C 150.719 209.219 149.22 210.711 147.417 211.747 C 145.614 212.783 143.569 213.325 141.49 213.32 Z M 79.61 182.76 C 76.93 182.76 74.328 181.849 72.233 180.178 C 70.138 178.507 68.672 176.173 68.076 173.56 C 67.48 170.947 67.79 168.207 68.953 165.793 C 70.117 163.379 72.067 161.431 74.482 160.269 C 76.897 159.107 79.637 158.8 82.249 159.398 C 84.862 159.996 87.195 161.464 88.864 163.561 C 90.534 165.657 91.442 168.26 91.44 170.94 C 91.435 174.074 90.185 177.081 87.969 179.296 C 85.752 181.511 82.744 182.757 79.61 182.76 Z" fill="red" stroke-width="3" stroke="red"></path></svg>