<svg viewBox="0 0 24 24" xmlns="http://www.w3.org/2000/svg" xmlns:xlink= "http://www.w3.org/1999/xlink">
  <rect width="24" height="24" fill="none" rx="0" ry="0"/>
  <path fill-rule="evenodd" clip-rule="evenodd" d="M6.32568 9.04508C7.13649 6.69118 9.37075 5 12 5C15.3137 5 18 7.68629 18 11C20.2091 11 22 12.7909 22 15C22 17.2091 20.2091 19 18 19H14V16H15.9325C16.3564 16 16.588 15.5056 16.3166 15.1799L12.3841 10.4609C12.1842 10.2211 11.8158 10.2211 11.6159 10.4609L7.68341 15.1799C7.41202 15.5056 7.6436 16 8.06752 16H10V19H7C4.23858 19 2 16.7614 2 14C2 11.4673 3.88316 9.37436 6.32568 9.04508Z" fill="#ffffff"/>
</svg>
